<?xml version="1.0" standalone="no"?>
<!DOCTYPE svg PUBLIC "-//W3C//DTD SVG 20010904//EN"
 "http://www.w3.org/TR/2001/REC-SVG-20010904/DTD/svg10.dtd">
<svg version="1.0" xmlns="http://www.w3.org/2000/svg"
 width="512.000000pt" height="512.000000pt" viewBox="0 0 512.000000 512.000000"
 preserveAspectRatio="xMidYMid meet">

<g transform="translate(0.000000,512.000000) scale(0.100000,-0.100000)"
fill="#000000" stroke="none">
<path d="M0 2560 l0 -2560 2560 0 2560 0 0 2560 0 2560 -2560 0 -2560 0 0
-2560z m2655 1419 c578 -149 1054 -275 1059 -279 6 -6 -114 -619 -140 -711 -4
-14 -51 -5 -354 71 -193 48 -350 86 -350 85 0 -1 -50 -207 -111 -456 -60 -250
-180 -739 -265 -1088 -85 -349 -156 -636 -157 -638 -4 -3 -695 212 -702 219
-2 2 117 485 265 1073 149 589 268 1075 266 1080 -2 6 -173 53 -380 105 -239
60 -376 99 -376 107 0 12 146 660 156 696 4 11 12 16 22 13 9 -3 490 -127
1067 -277z m724 -1298 c89 -99 161 -183 161 -186 0 -4 -18 -27 -40 -52 -48
-55 -86 -130 -102 -203 -8 -37 -11 -149 -10 -343 3 -328 -4 -379 -76 -546 -70
-161 -115 -227 -240 -350 -64 -62 -127 -120 -140 -129 -24 -15 -26 -15 -49 13
-13 17 -78 110 -143 209 -103 153 -118 181 -107 196 6 9 55 65 107 123 106
120 163 206 188 287 15 48 17 94 14 348 -4 395 10 479 99 608 46 66 160 202
170 203 4 1 79 -80 168 -178z"/>
</g>
</svg>
